<svg width="32" height="32" viewBox="0 0 32 32" fill="none" xmlns="http://www.w3.org/2000/svg">
<path d="M31.1716 19.7736C31.2418 19.0845 31.312 17.875 31.1575 16.4405C30.8487 13.459 29.6555 10.9697 27.8867 9.05704C25.9916 7.00372 23.4929 5.45671 20.4326 4.80977C20.3484 4.59882 20.2221 4.38786 20.0536 4.23316C19.45 3.67061 18.5095 3.69873 17.9339 4.30348C17.3724 4.90822 17.4005 5.85049 18.0041 6.42711C18.6077 7.00372 19.5483 6.96153 20.1238 6.35679C20.2361 6.23021 20.3203 6.10364 20.3905 5.963C23.17 6.59587 25.3459 7.96006 27.0725 9.84461C29.0799 12.0386 29.852 14.6544 30.0486 16.553C30.1889 17.9172 30.1187 19.0564 30.0626 19.7033C30.0345 19.9987 30.231 20.2799 30.5258 20.3362C30.8347 20.3503 31.1295 20.1112 31.1716 19.7736ZM18.3129 6.07551C17.8918 5.68173 17.8637 5.02073 18.2708 4.59882C18.6639 4.1769 19.3237 4.14877 19.7448 4.55662C20.1659 4.95041 20.194 5.61141 19.7869 6.03332C19.3798 6.45524 18.7341 6.4693 18.3129 6.07551Z" fill="#70A9CA"/>
<path d="M23.8019 29.5618C24.3354 29.1259 25.2338 28.3242 26.1463 27.1991C28.0414 24.8786 28.9398 22.2627 29.0521 19.6609C29.1644 16.8622 28.4765 13.9932 26.778 11.3773C26.8762 11.1664 26.9324 10.9414 26.9183 10.6882C26.8903 9.85846 26.2024 9.21153 25.3742 9.23965C24.546 9.26778 23.9002 9.95691 23.9283 10.7867C23.9564 11.6164 24.6442 12.2634 25.4724 12.2352C25.6409 12.2352 25.7953 12.193 25.9357 12.1509C27.4518 14.5558 28.0273 17.0732 27.915 19.6187C27.7887 22.6003 26.4832 24.9911 25.29 26.4678C24.4336 27.5366 23.5773 28.2961 23.072 28.7039C22.8333 28.9008 22.7912 29.2243 22.9456 29.4774C23.1702 29.7306 23.5493 29.7728 23.8019 29.5618ZM24.3775 10.7585C24.3635 10.1819 24.8127 9.68969 25.3882 9.67563C25.9638 9.66157 26.4551 10.1116 26.4691 10.6882C26.4832 11.2648 26.034 11.7571 25.4584 11.7711C24.8829 11.7852 24.4056 11.3352 24.3775 10.7585Z" fill="#77C5B8"/>
<path d="M11.6868 31.2635C12.3747 31.3338 13.5819 31.4042 15.0138 31.2495C17.9898 30.9401 20.4745 29.7446 22.3836 27.9726C24.4332 26.074 25.9773 23.5706 26.6231 20.5047C26.8336 20.4203 27.0442 20.2938 27.1986 20.125C27.7601 19.5203 27.732 18.578 27.1284 18.0014C26.5248 17.4388 25.5843 17.467 25.0087 18.0717C24.4332 18.6764 24.4753 19.6187 25.0789 20.1953C25.2052 20.3078 25.3316 20.3922 25.472 20.4625C24.8403 23.2472 23.4786 25.4271 21.5975 27.1569C19.4076 29.168 16.7966 29.9415 14.9015 30.1384C13.5398 30.2791 12.4027 30.2087 11.757 30.1525C11.4622 30.1244 11.1815 30.3212 11.1253 30.6166C11.1253 30.926 11.3639 31.2213 11.6868 31.2635ZM25.3737 18.3811C25.7668 17.9592 26.4265 17.9311 26.8477 18.3389C27.2688 18.7327 27.2969 19.3937 26.8898 19.8156C26.4967 20.2375 25.8369 20.2656 25.4158 19.8578C24.9947 19.464 24.9666 18.803 25.3737 18.3811Z" fill="#197663"/>
<path d="M1.93037 23.8802C2.36554 24.4146 3.1657 25.3147 4.28872 26.2288C6.60497 28.1274 9.216 29.0275 11.813 29.14C14.6065 29.2525 17.4702 28.5634 20.0813 26.8617C20.2918 26.9601 20.5165 27.0164 20.7691 27.0023C21.5974 26.9742 22.2431 26.2851 22.215 25.4553C22.187 24.6256 21.4991 23.9786 20.6709 24.0067C19.8426 24.0349 19.1969 24.724 19.225 25.5538C19.225 25.7225 19.2671 25.8772 19.3092 26.0179C16.9087 27.5368 14.396 28.1134 11.8551 28.0009C8.87909 27.8743 6.49266 26.5664 5.01869 25.3709C3.95182 24.513 3.19377 23.6552 2.78668 23.1489C2.59015 22.9098 2.26728 22.8676 2.0146 23.0223C1.76192 23.2473 1.7198 23.627 1.93037 23.8802ZM20.6849 24.4568C21.2605 24.4427 21.7518 24.8928 21.7658 25.4694C21.7799 26.046 21.3306 26.5382 20.7551 26.5523C20.1795 26.5664 19.6882 26.1163 19.6742 25.5397C19.6601 24.9631 20.1094 24.4849 20.6849 24.4568Z" fill="#EF7C27"/>
<path d="M0.23229 11.7432C0.162101 12.4324 0.0919118 13.6419 0.246328 15.0764C0.55516 18.0579 1.74838 20.5472 3.51714 22.4598C5.41225 24.5132 7.91098 26.0602 10.9712 26.7071C11.0555 26.9181 11.1818 27.129 11.3502 27.2837C11.9539 27.8463 12.8944 27.8181 13.47 27.2134C14.0315 26.6087 14.0034 25.6664 13.3998 25.0898C12.7961 24.5272 11.8556 24.5553 11.2801 25.1601C11.1678 25.2867 11.0835 25.4132 11.0133 25.5539C8.23385 24.921 6.05799 23.5568 4.33134 21.6723C2.32393 19.5205 1.55185 16.9046 1.35532 15.006C1.21494 13.6419 1.28513 12.4886 1.34128 11.8558C1.36935 11.5604 1.17282 11.2791 0.87803 11.2229C0.55516 11.1807 0.260366 11.4198 0.23229 11.7432ZM13.0769 25.4554C13.498 25.8492 13.5261 26.5102 13.119 26.9321C12.726 27.354 12.0662 27.3822 11.645 26.9743C11.2239 26.5805 11.2099 25.9195 11.6029 25.4976C11.996 25.0757 12.6558 25.0476 13.0769 25.4554Z" fill="#E54428"/>
<path d="M7.58886 1.96884C7.05542 2.40482 6.157 3.20645 5.24454 4.33156C3.34943 6.65208 2.45101 9.26795 2.33871 11.8697C2.2264 14.6684 2.91426 17.5375 4.61284 20.1533C4.51457 20.3643 4.45842 20.5893 4.47246 20.8424C4.50053 21.6722 5.18839 22.3191 6.01662 22.291C6.84485 22.2629 7.49059 21.5738 7.46252 20.744C7.43444 19.9142 6.74659 19.2673 5.91835 19.2954C5.7499 19.2954 5.59548 19.3376 5.45511 19.3798C3.93902 16.9749 3.36347 14.4575 3.47577 11.9119C3.60211 8.93042 4.90763 6.53957 6.10085 5.06287C6.95715 3.99403 7.81346 3.23458 8.31882 2.82673C8.55747 2.62984 8.59958 2.30637 8.44516 2.05322C8.2346 1.80008 7.85557 1.75788 7.58886 1.96884ZM7.0133 20.7581C7.02734 21.3347 6.57813 21.8269 6.00258 21.841C5.42703 21.855 4.93571 21.405 4.92167 20.8284C4.90763 20.2518 5.35684 19.7595 5.93239 19.7455C6.50794 19.7314 6.98523 20.1814 7.0133 20.7581Z" fill="#BA282B"/>
<path d="M19.7027 0.267034C19.0148 0.196716 17.8076 0.126397 16.3757 0.281098C13.3857 0.576438 10.915 1.77186 8.99184 3.5439C6.94231 5.44251 5.39815 7.95992 4.75241 11.0118C4.54185 11.0961 4.33128 11.2227 4.17686 11.3915C3.61535 11.9962 3.64343 12.9385 4.24705 13.5151C4.85068 14.0777 5.79121 14.0495 6.36676 13.4448C6.91424 12.8401 6.88616 11.8978 6.28254 11.3352C6.17023 11.2227 6.02986 11.1243 5.88948 11.068C6.52118 8.28339 7.88285 6.1035 9.76392 4.37366C11.9398 2.36254 14.5508 1.58903 16.4459 1.39214C17.8076 1.2515 18.9447 1.32182 19.5904 1.37807C19.8852 1.4062 20.1659 1.20931 20.2221 0.913969C20.2782 0.590501 20.0396 0.295162 19.7027 0.267034ZM6.02986 13.1354C5.6368 13.5573 4.97702 13.5854 4.55588 13.1776C4.12071 12.7979 4.10667 12.1369 4.49973 11.7009C4.89279 11.279 5.55257 11.2508 5.9737 11.6587C6.39484 12.0525 6.42291 12.7135 6.02986 13.1354Z" fill="#050507"/>
<path d="M29.4734 7.63659C29.0242 7.10216 28.2241 6.20208 27.101 5.28794C24.7848 3.38932 22.1738 2.48924 19.5768 2.37673C16.7832 2.26422 13.9195 2.95335 11.3085 4.65507C11.0979 4.55662 10.8733 4.50036 10.6206 4.51443C9.79241 4.54255 9.14666 5.23168 9.17474 6.06144C9.20282 6.89121 9.89067 7.53814 10.7189 7.51001C11.5471 7.48189 12.1929 6.79276 12.1648 5.963C12.1648 5.79423 12.1227 5.63953 12.0806 5.49889C14.481 3.98 16.9938 3.40339 19.5347 3.5159C22.5107 3.64247 24.8971 4.9504 26.3711 6.14583C27.438 7.00372 28.196 7.86161 28.6031 8.36791C28.7996 8.60699 29.1225 8.64918 29.3752 8.49448C29.6419 8.28352 29.684 7.9038 29.4734 7.63659ZM10.7049 7.05997C10.1293 7.07404 9.63799 6.624 9.62395 6.04738C9.60991 5.47076 10.0591 4.97853 10.6347 4.96447C11.2102 4.9504 11.7015 5.40045 11.7156 5.97706C11.7296 6.55368 11.2804 7.03185 10.7049 7.05997Z" fill="#FAB624"/>
</svg>
